<svg width="21" height="20" viewBox="0 0 21 20" fill="none" xmlns="http://www.w3.org/2000/svg">
<path d="M19.0009 10.1943C19.0009 9.47489 18.9413 8.94989 18.8124 8.40546H10.4295V11.6526H15.35C15.2509 12.4596 14.7152 13.6749 13.5247 14.4915L13.508 14.6002L16.1585 16.6125L16.3421 16.6305C18.0286 15.104 19.0009 12.8582 19.0009 10.1943Z" fill="#4285F4"/>
<path d="M10.4289 18.75C12.8396 18.75 14.8633 17.9722 16.3416 16.6305L13.5241 14.4916C12.7701 15.0069 11.7582 15.3666 10.4289 15.3666C8.06781 15.3666 6.06386 13.8402 5.34951 11.7305L5.2448 11.7392L2.48876 13.8295L2.45271 13.9277C3.92095 16.786 6.93681 18.75 10.4289 18.75Z" fill="#34A853"/>
<path d="M5.35003 11.7305C5.16155 11.1861 5.05246 10.6027 5.05246 9.99998C5.05246 9.39716 5.16155 8.81385 5.34012 8.26941L5.33512 8.15346L2.54453 6.0296L2.45323 6.07216C1.8481 7.25829 1.50087 8.59026 1.50087 9.99998C1.50087 11.4097 1.8481 12.7416 2.45323 13.9277L5.35003 11.7305Z" fill="#FBBC05"/>
<path d="M10.4289 4.63331C12.1055 4.63331 13.2364 5.34303 13.8813 5.93613L16.4011 3.525C14.8536 2.11528 12.8396 1.25 10.4289 1.25C6.93684 1.25 3.92095 3.21387 2.45271 6.07218L5.33961 8.26944C6.06388 6.15972 8.06784 4.63331 10.4289 4.63331Z" fill="#EB4335"/>
</svg>
