<svg width="524" height="573" viewBox="0 0 524 573" fill="none" xmlns="http://www.w3.org/2000/svg" xmlns:xlink="http://www.w3.org/1999/xlink">
<circle cx="262" cy="262" r="262" fill="url(#paint0_linear_1_341)" fill-opacity="0.06"/>
<circle cx="261.5" cy="261.5" r="183.5" fill="url(#paint1_linear_1_341)" fill-opacity="0.15"/>
<rect x="90" y="79" width="210" height="274" rx="12" fill="white"/>
<path d="M90 114H300V335C300 340.591 300 343.387 299.087 345.592C297.869 348.533 295.533 350.869 292.592 352.087C290.387 353 287.591 353 282 353H108C102.409 353 99.6131 353 97.4078 352.087C94.4675 350.869 92.1314 348.533 90.9134 345.592C90 343.387 90 340.591 90 335V114Z" fill="#F1F5F9"/>
<rect x="106" y="134" width="78" height="20" rx="4" fill="white"/>
<rect x="113" y="140" width="64" height="8" rx="4" fill="#F1F5F9"/>
<rect x="197" y="140" width="64" height="8" rx="4" fill="#E2E8F0"/>
<rect x="210" y="92" width="78" height="10" rx="5" fill="#F1F5F9"/>
<circle cx="110" cy="97" r="4" fill="#2563EB"/>
<circle cx="124" cy="97" r="4" fill="#24D164"/>
<circle cx="138" cy="97" r="4" fill="#F6A723"/>
<rect x="106" y="166" width="178" height="48" rx="8" fill="white"/>
<circle cx="132" cy="190" r="14" fill="url(#pattern0_1_341)"/>
<rect x="154" y="181" width="64" height="6" rx="3" fill="#CBD5E1"/>
<rect x="154" y="195" width="55" height="4" rx="2" fill="#E2E8F0"/>
<rect x="106" y="222" width="178" height="48" rx="8" fill="white"/>
<circle cx="132" cy="246" r="14" fill="url(#pattern1_1_341)"/>
<rect x="154" y="237" width="64" height="6" rx="3" fill="#CBD5E1"/>
<rect x="154" y="251" width="55" height="4" rx="2" fill="#E2E8F0"/>
<rect x="106" y="278" width="178" height="48" rx="8" fill="white"/>
<circle cx="132" cy="302" r="14" fill="url(#pattern2_1_341)"/>
<rect x="154" y="293" width="64" height="6" rx="3" fill="#CBD5E1"/>
<rect x="154" y="307" width="55" height="4" rx="2" fill="#E2E8F0"/>
<g filter="url(#filter0_d_1_341)">
<rect x="239" y="134" width="194" height="112" rx="12" fill="white"/>
</g>
<path d="M255.263 160L255.911 158.01H259.06L259.707 160H261.685L258.676 151.273H256.298L253.286 160H255.263ZM256.379 156.57L257.453 153.267H257.521L258.595 156.57H256.379ZM265.354 160.128C267.097 160.128 268.192 159.105 268.277 157.601H266.564C266.457 158.3 265.997 158.692 265.375 158.692C264.527 158.692 263.977 157.98 263.977 156.727C263.977 155.491 264.531 154.784 265.375 154.784C266.04 154.784 266.466 155.223 266.564 155.875H268.277C268.2 154.362 267.054 153.369 265.345 153.369C263.359 153.369 262.132 154.746 262.132 156.753C262.132 158.743 263.338 160.128 265.354 160.128ZM272.921 153.455H271.689V151.886H269.874V153.455H268.979V154.818H269.874V158.227C269.865 159.51 270.739 160.145 272.056 160.089C272.525 160.072 272.857 159.979 273.04 159.919L272.755 158.568C272.665 158.585 272.473 158.628 272.303 158.628C271.941 158.628 271.689 158.491 271.689 157.989V154.818H272.921V153.455ZM274.103 160H275.919V153.455H274.103V160ZM275.015 152.611C275.556 152.611 276 152.197 276 151.69C276 151.188 275.556 150.774 275.015 150.774C274.478 150.774 274.035 151.188 274.035 151.69C274.035 152.197 274.478 152.611 275.015 152.611ZM283.475 153.455H281.553L280.198 158.138H280.13L278.771 153.455H276.853L279.141 160H281.187L283.475 153.455ZM284.404 160H286.219V153.455H284.404V160ZM285.316 152.611C285.857 152.611 286.3 152.197 286.3 151.69C286.3 151.188 285.857 150.774 285.316 150.774C284.779 150.774 284.336 151.188 284.336 151.69C284.336 152.197 284.779 152.611 285.316 152.611ZM291.155 153.455H289.924V151.886H288.108V153.455H287.213V154.818H288.108V158.227C288.1 159.51 288.973 160.145 290.29 160.089C290.759 160.072 291.091 159.979 291.275 159.919L290.989 158.568C290.9 158.585 290.708 158.628 290.537 158.628C290.175 158.628 289.924 158.491 289.924 157.989V154.818H291.155V153.455ZM293.458 162.455C294.809 162.455 295.525 161.764 295.896 160.707L298.44 153.463L296.518 153.455L295.15 158.261H295.082L293.727 153.455H291.818L294.166 160.188L294.059 160.464C293.821 161.078 293.365 161.108 292.725 160.912L292.316 162.267C292.576 162.378 292.998 162.455 293.458 162.455Z" fill="#0F172A"/>
<path d="M254.146 225.182V231H254.805V226.58H254.862L256.68 231H257.316L259.135 226.58H259.191V231H259.85V225.182H259.01L257.032 230.011H256.964L254.987 225.182H254.146Z" fill="#64748B"/>
<path d="M281.987 225.807H283.816V231H284.521V225.807H286.35V225.182H281.987V225.807Z" fill="#64748B"/>
<path d="M309.298 231H310.025L311.309 226.364H311.355L312.639 231H313.366L314.957 225.182H314.241L313.025 229.92H312.968L311.73 225.182H310.934L309.696 229.92H309.639L308.423 225.182H307.707L309.298 231Z" fill="#64748B"/>
<path d="M336.32 225.807H338.15V231H338.854V225.807H340.684V225.182H336.32V225.807Z" fill="#64748B"/>
<path d="M362.524 231H363.228V228.398H365.751V227.773H363.228V225.807H366.012V225.182H362.524V231Z" fill="#64748B"/>
<path d="M391.169 226.636H391.851C391.819 225.759 391.01 225.102 389.885 225.102C388.771 225.102 387.896 225.75 387.896 226.727C387.896 227.511 388.464 227.977 389.373 228.239L390.089 228.443C390.703 228.614 391.248 228.83 391.248 229.409C391.248 230.045 390.635 230.466 389.828 230.466C389.135 230.466 388.521 230.159 388.464 229.5H387.737C387.805 230.455 388.578 231.102 389.828 231.102C391.169 231.102 391.93 230.364 391.93 229.42C391.93 228.33 390.896 227.977 390.294 227.818L389.703 227.659C389.271 227.545 388.578 227.318 388.578 226.693C388.578 226.136 389.089 225.727 389.862 225.727C390.567 225.727 391.101 226.062 391.169 226.636Z" fill="#64748B"/>
<path d="M417.336 226.636H418.017C417.986 225.759 417.176 225.102 416.051 225.102C414.938 225.102 414.063 225.75 414.063 226.727C414.063 227.511 414.631 227.977 415.54 228.239L416.256 228.443C416.87 228.614 417.415 228.83 417.415 229.409C417.415 230.045 416.801 230.466 415.995 230.466C415.301 230.466 414.688 230.159 414.631 229.5H413.904C413.972 230.455 414.745 231.102 415.995 231.102C417.336 231.102 418.097 230.364 418.097 229.42C418.097 228.33 417.063 227.977 416.461 227.818L415.87 227.659C415.438 227.545 414.745 227.318 414.745 226.693C414.745 226.136 415.256 225.727 416.029 225.727C416.733 225.727 417.267 226.062 417.336 226.636Z" fill="#64748B"/>
<path d="M252 204C252 203.071 252 202.606 252.077 202.22C252.392 200.633 253.633 199.392 255.22 199.077C255.606 199 256.071 199 257 199C257.929 199 258.394 199 258.78 199.077C260.367 199.392 261.608 200.633 261.923 202.22C262 202.606 262 203.071 262 204V218H252V204Z" fill="#38BDF8"/>
<path d="M279 193C279 192.071 279 191.606 279.077 191.22C279.392 189.633 280.633 188.392 282.22 188.077C282.606 188 283.071 188 284 188C284.929 188 285.394 188 285.78 188.077C287.367 188.392 288.608 189.633 288.923 191.22C289 191.606 289 192.071 289 193V218H279V193Z" fill="#38BDF8"/>
<path d="M306 199C306 198.071 306 197.606 306.077 197.22C306.392 195.633 307.633 194.392 309.22 194.077C309.606 194 310.071 194 311 194C311.929 194 312.394 194 312.78 194.077C314.367 194.392 315.608 195.633 315.923 197.22C316 197.606 316 198.071 316 199V218H306V199Z" fill="#38BDF8"/>
<path d="M333 181C333 180.071 333 179.606 333.077 179.22C333.392 177.633 334.633 176.392 336.22 176.077C336.606 176 337.071 176 338 176C338.929 176 339.394 176 339.78 176.077C341.367 176.392 342.608 177.633 342.923 179.22C343 179.606 343 180.071 343 181V218H333V181Z" fill="#38BDF8"/>
<path d="M359 170C359 169.071 359 168.606 359.077 168.22C359.392 166.633 360.633 165.392 362.22 165.077C362.606 165 363.071 165 364 165C364.929 165 365.394 165 365.78 165.077C367.367 165.392 368.608 166.633 368.923 168.22C369 168.606 369 169.071 369 170V218H359V170Z" fill="#38BDF8"/>
<path d="M385 176C385 175.071 385 174.606 385.077 174.22C385.392 172.633 386.633 171.392 388.22 171.077C388.606 171 389.071 171 390 171C390.929 171 391.394 171 391.78 171.077C393.367 171.392 394.608 172.633 394.923 174.22C395 174.606 395 175.071 395 176V218H385V176Z" fill="#38BDF8"/>
<path d="M411 191C411 190.071 411 189.606 411.077 189.22C411.392 187.633 412.633 186.392 414.22 186.077C414.606 186 415.071 186 416 186C416.929 186 417.394 186 417.78 186.077C419.367 186.392 420.608 187.633 420.923 189.22C421 189.606 421 190.071 421 191V218H411V191Z" fill="#38BDF8"/>
<g filter="url(#filter1_d_1_341)">
<rect x="239" y="258" width="194" height="210" rx="12" fill="white"/>
</g>
<path d="M239 286H433V450C433 455.591 433 458.387 432.087 460.592C430.869 463.533 428.533 465.869 425.592 467.087C423.387 468 420.591 468 415 468H257C251.409 468 248.613 468 246.408 467.087C243.467 465.869 241.131 463.533 239.913 460.592C239 458.387 239 455.591 239 450V286Z" fill="#F1F5F9"/>
<rect x="267" y="271" width="65" height="6" rx="3" fill="#E2E8F0"/>
<circle cx="255" cy="274" r="4" fill="#E2E8F0"/>
<rect x="338" y="304" width="83" height="26" rx="8" fill="white"/>
<rect x="347" y="313" width="65" height="8" rx="4" fill="#E2E8F0"/>
<rect x="251" y="298" width="80" height="78" rx="8" fill="white"/>
<path d="M321 337C321 353.569 307.569 367 291 367C274.431 367 261 353.569 261 337C261 320.431 274.431 307 291 307C307.569 307 321 320.431 321 337ZM267.816 337C267.816 349.804 278.196 360.184 291 360.184C303.804 360.184 314.184 349.804 314.184 337C314.184 324.196 303.804 313.816 291 313.816C278.196 313.816 267.816 324.196 267.816 337Z" fill="#F1F5F9"/>
<path d="M289.707 309.03C289.656 307.926 290.51 306.984 291.615 307.006C296.965 307.116 302.202 308.655 306.774 311.482C311.915 314.66 315.976 319.316 318.426 324.842C320.875 330.367 321.599 336.503 320.501 342.447C319.526 347.733 317.15 352.647 313.638 356.685C312.913 357.519 311.641 357.518 310.858 356.74L308.861 354.754C308.077 353.976 308.081 352.714 308.789 351.867C311.341 348.813 313.072 345.144 313.798 341.209C314.646 336.616 314.087 331.874 312.194 327.604C310.302 323.334 307.163 319.736 303.19 317.28C299.786 315.176 295.906 313.994 291.929 313.835C290.826 313.791 289.888 312.946 289.837 311.843L289.707 309.03Z" fill="#2563EB"/>
<path d="M309.758 357.788C310.498 358.608 310.437 359.878 309.57 360.562C306.175 363.237 302.235 365.153 298.018 366.168C293.151 367.339 288.068 367.273 283.233 365.977C278.397 364.681 273.963 362.195 270.334 358.747C267.19 355.759 264.736 352.13 263.135 348.115C262.726 347.089 263.308 345.958 264.359 345.618L267.039 344.752C268.09 344.412 269.209 344.992 269.639 346.01C270.877 348.946 272.71 351.601 275.03 353.806C277.834 356.471 281.261 358.392 284.997 359.393C288.734 360.395 292.662 360.445 296.423 359.54C299.535 358.792 302.45 357.409 304.991 355.486C305.872 354.82 307.132 354.877 307.872 355.697L309.758 357.788Z" fill="#38BDF8"/>
<path d="M263.942 344.2C262.874 344.484 261.772 343.85 261.559 342.766C260.655 338.148 260.85 333.382 262.127 328.853C262.427 327.79 263.578 327.248 264.619 327.618L267.272 328.561C268.313 328.932 268.847 330.074 268.568 331.143C267.727 334.364 267.59 337.73 268.165 341.009C268.357 342.097 267.731 343.192 266.663 343.476L263.942 344.2Z" fill="#8B5CF6"/>
<path d="M280.411 341H281.787L285.584 333.44V332.273H279.814V333.402H284.221V333.466L280.411 341ZM289.917 341.145C291.933 341.145 293.113 339.5 293.113 336.641C293.113 333.803 291.915 332.153 289.917 332.153C287.914 332.153 286.721 333.798 286.717 336.641C286.717 339.496 287.897 341.141 289.917 341.145ZM289.917 340.007C288.737 340.007 288.025 338.822 288.025 336.641C288.029 334.467 288.741 333.27 289.917 333.27C291.089 333.27 291.805 334.467 291.805 336.641C291.805 338.822 291.093 340.007 289.917 340.007ZM299.18 339.364C299.184 340.348 299.802 341.179 300.957 341.179C302.099 341.179 302.725 340.348 302.725 339.364V338.903C302.725 337.915 302.116 337.088 300.957 337.088C299.819 337.088 299.184 337.919 299.18 338.903V339.364ZM294.791 334.369C294.791 335.354 295.413 336.185 296.568 336.185C297.706 336.185 298.336 335.358 298.332 334.369V333.909C298.336 332.92 297.723 332.094 296.568 332.094C295.434 332.094 294.791 332.92 294.791 333.909V334.369ZM295.149 341H296.167L302.167 332.273H301.149L295.149 341ZM300.173 338.903C300.177 338.413 300.39 337.94 300.957 337.94C301.545 337.94 301.728 338.413 301.728 338.903V339.364C301.728 339.854 301.528 340.327 300.957 340.327C300.377 340.327 300.177 339.849 300.173 339.364V338.903ZM295.788 333.909C295.788 333.423 296.001 332.946 296.568 332.946C297.156 332.946 297.339 333.419 297.339 333.909V334.369C297.339 334.859 297.139 335.332 296.568 335.332C295.988 335.332 295.788 334.859 295.788 334.369V333.909Z" fill="#0F172A"/>
<rect x="251" y="384" width="170" height="48" rx="8" fill="white"/>
<rect x="259" y="396" width="67" height="6" rx="3" fill="#E2E8F0"/>
<rect x="259" y="414" width="58" height="6" rx="3" fill="#F1F5F9"/>
<path d="M366.176 404.909H367.014L367.021 404.089C368.558 403.972 369.45 403.155 369.453 401.923C369.45 400.712 368.537 400.069 367.273 399.785L367.063 399.735L367.078 397.96C367.55 398.07 367.838 398.371 367.88 398.819H369.354C369.336 397.643 368.459 396.802 367.092 396.653L367.099 395.818H366.261L366.254 396.646C364.865 396.781 363.885 397.619 363.892 398.83C363.889 399.902 364.645 400.516 365.874 400.811L366.215 400.896L366.197 402.775C365.618 402.665 365.227 402.31 365.188 401.717H363.7C363.736 403.151 364.677 403.954 366.183 404.085L366.176 404.909ZM367.035 402.775L367.049 401.116C367.6 401.29 367.898 401.514 367.901 401.919C367.898 402.349 367.571 402.668 367.035 402.775ZM366.225 399.518C365.781 399.366 365.462 399.135 365.469 398.727C365.469 398.347 365.739 398.052 366.24 397.949L366.225 399.518ZM373.609 396.727H372.164L370.363 397.867V399.231L372.029 398.187H372.071V404H373.609V396.727ZM376.615 403.006H375.365L375.347 403.403C375.305 404.369 375.028 405.36 374.925 405.776H375.905C376.075 405.346 376.48 404.337 376.576 403.396L376.615 403.006ZM377.984 404H383.169V402.743H380.115V402.693L381.176 401.653C382.672 400.289 383.073 399.607 383.073 398.78C383.073 397.519 382.043 396.628 380.484 396.628C378.957 396.628 377.909 397.54 377.913 398.968H379.373C379.369 398.272 379.809 397.846 380.473 397.846C381.113 397.846 381.588 398.244 381.588 398.883C381.588 399.462 381.233 399.859 380.573 400.495L377.984 402.892V404ZM386.971 404.099C388.605 404.099 389.773 403.201 389.769 401.958C389.773 401.053 389.198 400.406 388.129 400.271V400.214C388.942 400.069 389.503 399.494 389.499 398.677C389.503 397.53 388.498 396.628 386.992 396.628C385.501 396.628 384.379 397.501 384.357 398.759H385.831C385.849 398.205 386.357 397.846 386.985 397.846C387.607 397.846 388.022 398.222 388.019 398.769C388.022 399.341 387.536 399.728 386.836 399.728H386.158V400.857H386.836C387.66 400.857 388.175 401.269 388.171 401.855C388.175 402.434 387.678 402.832 386.975 402.832C386.296 402.832 385.789 402.477 385.76 401.944H384.212C384.237 403.215 385.373 404.099 386.971 404.099ZM393.531 404.099C395.15 404.099 396.251 403.045 396.248 401.575C396.251 400.183 395.278 399.181 393.968 399.181C393.328 399.181 392.778 399.447 392.522 399.806H392.48L392.668 397.984H395.846V396.727H391.4L391.056 400.562L392.423 400.808C392.647 400.506 393.08 400.317 393.51 400.317C394.241 400.321 394.767 400.85 394.767 401.614C394.767 402.37 394.252 402.892 393.531 402.892C392.92 402.892 392.426 402.509 392.391 401.944H390.9C390.928 403.201 392.025 404.099 393.531 404.099ZM398.754 403.006H397.504L397.486 403.403C397.443 404.369 397.166 405.36 397.063 405.776H398.044C398.214 405.346 398.619 404.337 398.715 403.396L398.754 403.006ZM402.672 404.16C404.5 404.16 405.605 402.768 405.608 400.371C405.612 397.991 404.493 396.628 402.672 396.628C400.846 396.628 399.738 397.988 399.735 400.371C399.728 402.761 400.839 404.156 402.672 404.16ZM402.672 402.885C401.837 402.885 401.297 402.047 401.301 400.371C401.304 398.719 401.841 397.888 402.672 397.888C403.499 397.888 404.039 398.719 404.039 400.371C404.042 402.047 403.502 402.885 402.672 402.885ZM409.556 404.16C411.385 404.16 412.49 402.768 412.493 400.371C412.497 397.991 411.378 396.628 409.556 396.628C407.731 396.628 406.623 397.988 406.619 400.371C406.612 402.761 407.724 404.156 409.556 404.16ZM409.556 402.885C408.722 402.885 408.182 402.047 408.186 400.371C408.189 398.719 408.725 397.888 409.556 397.888C410.384 397.888 410.923 398.719 410.923 400.371C410.927 402.047 410.387 402.885 409.556 402.885Z" fill="#0F172A"/>
<path d="M376.925 415C376.71 413.807 375.755 413.102 374.585 413.102C373.096 413.102 372.016 414.25 372.016 416.091C372.016 417.932 373.096 419.08 374.585 419.08C375.755 419.08 376.71 418.375 376.925 417.182H376.221C376.05 417.989 375.357 418.42 374.585 418.42C373.528 418.42 372.698 417.602 372.698 416.091C372.698 414.58 373.528 413.761 374.585 413.761C375.357 413.761 376.05 414.193 376.221 415H376.925ZM379.746 419.091C380.928 419.091 381.723 418.193 381.723 416.841C381.723 415.477 380.928 414.58 379.746 414.58C378.564 414.58 377.768 415.477 377.768 416.841C377.768 418.193 378.564 419.091 379.746 419.091ZM379.746 418.489C378.848 418.489 378.439 417.716 378.439 416.841C378.439 415.966 378.848 415.182 379.746 415.182C380.643 415.182 381.053 415.966 381.053 416.841C381.053 417.716 380.643 418.489 379.746 418.489ZM382.746 419H383.417V416.273C383.417 415.634 383.883 415.182 384.406 415.182C384.914 415.182 385.269 415.514 385.269 416.011V419H385.951V416.159C385.951 415.597 386.303 415.182 386.917 415.182C387.394 415.182 387.803 415.435 387.803 416.08V419H388.474V416.08C388.474 415.054 387.923 414.58 387.144 414.58C386.519 414.58 386.062 414.866 385.837 415.318H385.792C385.576 414.852 385.195 414.58 384.621 414.58C384.053 414.58 383.633 414.852 383.451 415.318H383.394V414.636H382.746V419ZM389.7 420.636H390.37V418.33H390.427C390.575 418.568 390.859 419.091 391.7 419.091C392.79 419.091 393.552 418.216 393.552 416.83C393.552 415.455 392.79 414.58 391.688 414.58C390.836 414.58 390.575 415.102 390.427 415.33H390.347V414.636H389.7V420.636ZM390.359 416.818C390.359 415.841 390.79 415.182 391.609 415.182C392.461 415.182 392.881 415.898 392.881 416.818C392.881 417.75 392.45 418.489 391.609 418.489C390.802 418.489 390.359 417.807 390.359 416.818ZM395.245 413.182H394.575V419H395.245V413.182ZM398.303 419.091C399.189 419.091 399.837 418.648 400.041 417.989L399.393 417.807C399.223 418.261 398.828 418.489 398.303 418.489C397.516 418.489 396.973 417.98 396.942 417.045H400.109V416.761C400.109 415.136 399.143 414.58 398.234 414.58C397.053 414.58 396.268 415.511 396.268 416.852C396.268 418.193 397.041 419.091 398.303 419.091ZM396.942 416.466C396.987 415.787 397.467 415.182 398.234 415.182C398.962 415.182 399.428 415.727 399.428 416.466H396.942ZM403.027 414.636H402.095V413.591H401.425V414.636H400.766V415.205H401.425V417.932C401.425 418.693 402.038 419.057 402.607 419.057C402.857 419.057 403.016 419.011 403.107 418.977L402.97 418.375C402.913 418.386 402.822 418.409 402.675 418.409C402.379 418.409 402.095 418.318 402.095 417.75V415.205H403.027V414.636ZM405.818 419.091C406.705 419.091 407.352 418.648 407.557 417.989L406.909 417.807C406.739 418.261 406.344 418.489 405.818 418.489C405.031 418.489 404.489 417.98 404.457 417.045H407.625V416.761C407.625 415.136 406.659 414.58 405.75 414.58C404.568 414.58 403.784 415.511 403.784 416.852C403.784 418.193 404.557 419.091 405.818 419.091ZM404.457 416.466C404.503 415.787 404.983 415.182 405.75 415.182C406.477 415.182 406.943 415.727 406.943 416.466H404.457ZM410.293 419.091C411.134 419.091 411.418 418.568 411.565 418.33H411.645V419H412.293V413.182H411.622V415.33H411.565C411.418 415.102 411.156 414.58 410.304 414.58C409.202 414.58 408.44 415.455 408.44 416.83C408.44 418.216 409.202 419.091 410.293 419.091ZM410.384 418.489C409.543 418.489 409.111 417.75 409.111 416.818C409.111 415.898 409.531 415.182 410.384 415.182C411.202 415.182 411.634 415.841 411.634 416.818C411.634 417.807 411.19 418.489 410.384 418.489Z" fill="#34D399"/>
<rect x="251" y="440" width="170" height="48" rx="8" fill="white"/>
<rect x="259" y="452" width="67" height="6" rx="3" fill="#E2E8F0"/>
<rect x="259" y="470" width="58" height="6" rx="3" fill="#F1F5F9"/>
<path d="M365.365 460.909H366.203L366.21 460.089C367.748 459.972 368.639 459.155 368.643 457.923C368.639 456.712 367.727 456.069 366.462 455.785L366.253 455.735L366.267 453.96C366.739 454.07 367.027 454.371 367.07 454.819H368.543C368.526 453.643 367.648 452.802 366.281 452.653L366.288 451.818H365.45L365.443 452.646C364.055 452.781 363.075 453.619 363.082 454.83C363.078 455.902 363.835 456.516 365.063 456.811L365.404 456.896L365.386 458.775C364.808 458.665 364.417 458.31 364.378 457.717H362.89C362.925 459.151 363.866 459.954 365.372 460.085L365.365 460.909ZM366.224 458.775L366.239 457.116C366.789 457.29 367.087 457.514 367.091 457.919C367.087 458.349 366.761 458.668 366.224 458.775ZM365.415 455.518C364.971 455.366 364.651 455.135 364.658 454.727C364.658 454.347 364.928 454.052 365.429 453.949L365.415 455.518ZM369.634 460H374.819V458.743H371.765V458.693L372.827 457.653C374.322 456.289 374.723 455.607 374.723 454.78C374.723 453.519 373.693 452.628 372.134 452.628C370.607 452.628 369.56 453.54 369.563 454.968H371.023C371.019 454.272 371.46 453.846 372.124 453.846C372.763 453.846 373.239 454.244 373.239 454.883C373.239 455.462 372.884 455.859 372.223 456.495L369.634 458.892V460ZM377.592 459.006H376.342L376.324 459.403C376.281 460.369 376.004 461.36 375.901 461.776H376.881C377.052 461.346 377.457 460.337 377.553 459.396L377.592 459.006ZM378.961 460H384.145V458.743H381.091V458.693L382.153 457.653C383.648 456.289 384.049 455.607 384.049 454.78C384.049 453.519 383.02 452.628 381.461 452.628C379.934 452.628 378.886 453.54 378.89 454.968H380.349C380.346 454.272 380.786 453.846 381.45 453.846C382.089 453.846 382.565 454.244 382.565 454.883C382.565 455.462 382.21 455.859 381.549 456.495L378.961 458.892V460ZM388.051 460.099C389.67 460.107 390.774 459.045 390.771 457.564C390.774 456.2 389.823 455.217 388.534 455.217C387.735 455.217 387.028 455.6 386.701 456.243H386.651C386.659 454.826 387.156 453.945 388.104 453.945C388.661 453.945 389.063 454.251 389.18 454.759H390.696C390.551 453.562 389.556 452.628 388.104 452.628C386.307 452.628 385.153 454.084 385.146 456.527C385.142 459.19 386.556 460.092 388.051 460.099ZM388.044 458.892C387.333 458.892 386.808 458.32 386.808 457.61C386.811 456.903 387.347 456.328 388.054 456.328C388.764 456.328 389.283 456.886 389.279 457.607C389.283 458.335 388.754 458.892 388.044 458.892ZM394.652 460.099C396.271 460.107 397.376 459.045 397.372 457.564C397.376 456.2 396.424 455.217 395.135 455.217C394.336 455.217 393.629 455.6 393.303 456.243H393.253C393.26 454.826 393.757 453.945 394.705 453.945C395.263 453.945 395.664 454.251 395.781 454.759H397.298C397.152 453.562 396.158 452.628 394.705 452.628C392.909 452.628 391.754 454.084 391.747 456.527C391.744 459.19 393.157 460.092 394.652 460.099ZM394.645 458.892C393.935 458.892 393.409 458.32 393.409 457.61C393.413 456.903 393.949 456.328 394.656 456.328C395.366 456.328 395.884 456.886 395.881 457.607C395.884 458.335 395.355 458.892 394.645 458.892ZM399.818 459.006H398.568L398.55 459.403C398.508 460.369 398.231 461.36 398.128 461.776H399.108C399.278 461.346 399.683 460.337 399.779 459.396L399.818 459.006ZM401.201 460H402.789L405.807 454.002V452.727H400.704V453.984H404.216V454.034L401.201 460ZM409.556 460.16C411.385 460.16 412.49 458.768 412.493 456.371C412.497 453.991 411.378 452.628 409.556 452.628C407.731 452.628 406.623 453.988 406.619 456.371C406.612 458.761 407.724 460.156 409.556 460.16ZM409.556 458.885C408.722 458.885 408.182 458.047 408.186 456.371C408.189 454.719 408.725 453.888 409.556 453.888C410.384 453.888 410.923 454.719 410.923 456.371C410.927 458.047 410.387 458.885 409.556 458.885Z" fill="#0F172A"/>
<path d="M376.925 471C376.71 469.807 375.755 469.102 374.585 469.102C373.096 469.102 372.016 470.25 372.016 472.091C372.016 473.932 373.096 475.08 374.585 475.08C375.755 475.08 376.71 474.375 376.925 473.182H376.221C376.05 473.989 375.357 474.42 374.585 474.42C373.528 474.42 372.698 473.602 372.698 472.091C372.698 470.58 373.528 469.761 374.585 469.761C375.357 469.761 376.05 470.193 376.221 471H376.925ZM379.746 475.091C380.928 475.091 381.723 474.193 381.723 472.841C381.723 471.477 380.928 470.58 379.746 470.58C378.564 470.58 377.768 471.477 377.768 472.841C377.768 474.193 378.564 475.091 379.746 475.091ZM379.746 474.489C378.848 474.489 378.439 473.716 378.439 472.841C378.439 471.966 378.848 471.182 379.746 471.182C380.643 471.182 381.053 471.966 381.053 472.841C381.053 473.716 380.643 474.489 379.746 474.489ZM382.746 475H383.417V472.273C383.417 471.634 383.883 471.182 384.406 471.182C384.914 471.182 385.269 471.514 385.269 472.011V475H385.951V472.159C385.951 471.597 386.303 471.182 386.917 471.182C387.394 471.182 387.803 471.435 387.803 472.08V475H388.474V472.08C388.474 471.054 387.923 470.58 387.144 470.58C386.519 470.58 386.062 470.866 385.837 471.318H385.792C385.576 470.852 385.195 470.58 384.621 470.58C384.053 470.58 383.633 470.852 383.451 471.318H383.394V470.636H382.746V475ZM389.7 476.636H390.37V474.33H390.427C390.575 474.568 390.859 475.091 391.7 475.091C392.79 475.091 393.552 474.216 393.552 472.83C393.552 471.455 392.79 470.58 391.688 470.58C390.836 470.58 390.575 471.102 390.427 471.33H390.347V470.636H389.7V476.636ZM390.359 472.818C390.359 471.841 390.79 471.182 391.609 471.182C392.461 471.182 392.881 471.898 392.881 472.818C392.881 473.75 392.45 474.489 391.609 474.489C390.802 474.489 390.359 473.807 390.359 472.818ZM395.245 469.182H394.575V475H395.245V469.182ZM398.303 475.091C399.189 475.091 399.837 474.648 400.041 473.989L399.393 473.807C399.223 474.261 398.828 474.489 398.303 474.489C397.516 474.489 396.973 473.98 396.942 473.045H400.109V472.761C400.109 471.136 399.143 470.58 398.234 470.58C397.053 470.58 396.268 471.511 396.268 472.852C396.268 474.193 397.041 475.091 398.303 475.091ZM396.942 472.466C396.987 471.787 397.467 471.182 398.234 471.182C398.962 471.182 399.428 471.727 399.428 472.466H396.942ZM403.027 470.636H402.095V469.591H401.425V470.636H400.766V471.205H401.425V473.932C401.425 474.693 402.038 475.057 402.607 475.057C402.857 475.057 403.016 475.011 403.107 474.977L402.97 474.375C402.913 474.386 402.822 474.409 402.675 474.409C402.379 474.409 402.095 474.318 402.095 473.75V471.205H403.027V470.636ZM405.818 475.091C406.705 475.091 407.352 474.648 407.557 473.989L406.909 473.807C406.739 474.261 406.344 474.489 405.818 474.489C405.031 474.489 404.489 473.98 404.457 473.045H407.625V472.761C407.625 471.136 406.659 470.58 405.75 470.58C404.568 470.58 403.784 471.511 403.784 472.852C403.784 474.193 404.557 475.091 405.818 475.091ZM404.457 472.466C404.503 471.787 404.983 471.182 405.75 471.182C406.477 471.182 406.943 471.727 406.943 472.466H404.457ZM410.293 475.091C411.134 475.091 411.418 474.568 411.565 474.33H411.645V475H412.293V469.182H411.622V471.33H411.565C411.418 471.102 411.156 470.58 410.304 470.58C409.202 470.58 408.44 471.455 408.44 472.83C408.44 474.216 409.202 475.091 410.293 475.091ZM410.384 474.489C409.543 474.489 409.111 473.75 409.111 472.818C409.111 471.898 409.531 471.182 410.384 471.182C411.202 471.182 411.634 471.841 411.634 472.818C411.634 473.807 411.19 474.489 410.384 474.489Z" fill="#34D399"/>
<rect x="338" y="342" width="57" height="8" rx="4" fill="#E2E8F0"/>
<rect x="338" y="356" width="79" height="4" rx="2" fill="#E2E8F0"/>
<rect x="339" y="366" width="41" height="4" rx="2" fill="#E2E8F0"/>
<defs>
<pattern id="pattern0_1_341" patternContentUnits="objectBoundingBox" width="1" height="1">
<use xlink:href="#image0_1_341" transform="scale(0.00299401)"/>
</pattern>
<pattern id="pattern1_1_341" patternContentUnits="objectBoundingBox" width="1" height="1">
<use xlink:href="#image1_1_341" transform="scale(0.00390625)"/>
</pattern>
<pattern id="pattern2_1_341" patternContentUnits="objectBoundingBox" width="1" height="1">
<use xlink:href="#image2_1_341" transform="scale(0.002)"/>
</pattern>
<filter id="filter0_d_1_341" x="147" y="79" width="354" height="272" filterUnits="userSpaceOnUse" color-interpolation-filters="sRGB">
<feFlood flood-opacity="0" result="BackgroundImageFix"/>
<feColorMatrix in="SourceAlpha" type="matrix" values="0 0 0 0 0 0 0 0 0 0 0 0 0 0 0 0 0 0 127 0" result="hardAlpha"/>
<feOffset dx="-12" dy="25"/>
<feGaussianBlur stdDeviation="40"/>
<feComposite in2="hardAlpha" operator="out"/>
<feColorMatrix type="matrix" values="0 0 0 0 0.117647 0 0 0 0 0.227451 0 0 0 0 0.541176 0 0 0 0.2 0"/>
<feBlend mode="normal" in2="BackgroundImageFix" result="effect1_dropShadow_1_341"/>
<feBlend mode="normal" in="SourceGraphic" in2="effect1_dropShadow_1_341" result="shape"/>
</filter>
<filter id="filter1_d_1_341" x="147" y="203" width="354" height="370" filterUnits="userSpaceOnUse" color-interpolation-filters="sRGB">
<feFlood flood-opacity="0" result="BackgroundImageFix"/>
<feColorMatrix in="SourceAlpha" type="matrix" values="0 0 0 0 0 0 0 0 0 0 0 0 0 0 0 0 0 0 127 0" result="hardAlpha"/>
<feOffset dx="-12" dy="25"/>
<feGaussianBlur stdDeviation="40"/>
<feComposite in2="hardAlpha" operator="out"/>
<feColorMatrix type="matrix" values="0 0 0 0 0.117647 0 0 0 0 0.227451 0 0 0 0 0.541176 0 0 0 0.2 0"/>
<feBlend mode="normal" in2="BackgroundImageFix" result="effect1_dropShadow_1_341"/>
<feBlend mode="normal" in="SourceGraphic" in2="effect1_dropShadow_1_341" result="shape"/>
</filter>
<linearGradient id="paint0_linear_1_341" x1="261.473" y1="-28.994" x2="262" y2="508" gradientUnits="userSpaceOnUse">
<stop stop-color="white"/>
<stop offset="1" stop-color="white" stop-opacity="0"/>
</linearGradient>
<linearGradient id="paint1_linear_1_341" x1="261.5" y1="-14.8294" x2="261.5" y2="434.746" gradientUnits="userSpaceOnUse">
<stop stop-color="white"/>
<stop offset="1" stop-color="white" stop-opacity="0"/>
</linearGradient>
</defs>
</svg>
